#N canvas 720 100 665 489 10;
#X declare -path ofelia/abs;
#X obj 28 62 loadbang;
#X text 25 23 Moving the mouse changes the position and size of each box.;
#X obj 28 104 ofWindow;
#X obj 28 140 ofSetup;
#X obj 458 75 ofDraw;
#X obj 527 75 ofMouseMoved;
#X msg 28 83 setPosition 30 100 \, setSize 640 360 \, create;
#X obj 485 29 declare -path ofelia/abs;
#X obj 28 180 ofelia f \; ofBackground(51) \; ofSetRectMode(OF_RECTMODE_CENTER) \;;
#X obj 458 151 ofelia f \; local x \, y = a[1] \, a[2] \; ofSetColor(255 \, 255 \, 255 \, 204) \; ofDrawRectangle(x \, ofGetHeight() / 2 \, y / 2 + 10 \, y / 2 + 10) \; local inverseX \, inverseY = ofGetWidth() - x \, ofGetHeight() - y \; ofDrawRectangle(inverseX \, ofGetHeight()/2 \, inverseY / 2 + 10 \, inverseY / 2 + 10) \;;
#X f 82;
#X obj 458 120 list 0 0, f 15;
#X text 642 74 Listen to the movement of mouse cursor.;
#X msg 28 160 bang;
#X text 458 292 This example was originally written in Processing. https://processing.org/examples/mouse2d.html;
#X connect 0 0 6 0 empty;
#X connect 3 0 12 0 empty;
#X connect 4 0 10 0 empty;
#X connect 5 0 10 1 empty;
#X connect 6 0 2 0 empty;
#X connect 10 0 9 0 empty;
#X connect 12 0 8 0 empty;
