#N canvas 720 100 680 542 10;
#X declare -path ofelia/abs;
#X obj 28 70 loadbang;
#X obj 28 112 ofWindow;
#X obj 28 148 ofSetup;
#X msg 28 91 setPosition 30 100 \, setSize 840 640 \, create;
#X obj 28 385 ofDraw;
#X text 23 21 This example shows loading some of GLSL shader examples from http://glslsandbox.com and https://www.shadertoy.com;
#X text 336 467 This patch was originally created by Jonathan Frank.;
#X obj 505 22 declare -path ofelia/abs;
#X obj 28 188 + 1;
#X obj 28 168 hradio 15 1 0 7 empty empty empty 0 -8 0 10 #fcfcfc #000000 #000000 0;
#X text 140 167 <- Try different examples.;
#X text 155 182 (some examples react to mouse movement);
#X obj 28 405 ofelia f \; shader:beginShader() \; ofSetColor(255) \; shader:setUniform1f("time" \, ofGetElapsedTimef()) \; shader:setUniform2f("resolution" \, ofGetWindowSize()) \; shader:setUniform2f("mouse" \, ofGetMouseX() \, ofGetMouseY()) \; ofDrawRectangle(20 \, 20 \, ofGetWidth() - 40 \, ofGetHeight() - 40) \; shader:endShader() \;;
#X f 64;
#X obj 434 193 pdcontrol;
#X msg 28 208 test\$1;
#X msg 433 152 dir 0 ./test;
#X obj 440 271 print;
#X obj 28 237 tosymbol;
#X text 380 309 comment;
#X obj 27 285 ofelia f \; local canvas = ofCanvas(this) local shaderDir = canvas:getDir() .. "/data/" ofSetDataPathRoot(shaderDir) ofSetWindowTitle("GLSL") \; ofBackground(0) \; shader = ofShader() \; shader:load(ofToDataPath(a)) \;;
#X connect 0 0 3 0;
#X connect 2 0 9 0;
#X connect 3 0 1 0;
#X connect 4 0 12 0;
#X connect 8 0 14 0;
#X connect 9 0 8 0;
#X connect 13 0 16 0;
#X connect 14 0 17 0;
#X connect 15 0 13 0;
#X connect 17 0 19 0;
